<?xml version="1.0" encoding="utf-8"?>
<!-- Uploaded to: SVG Repo, www.svgrepo.com, Generator: SVG Repo Mixer Tools -->
<svg width="800px" height="800px" viewBox="0 -0.08 45 45" xmlns="http://www.w3.org/2000/svg">
  <g id="Group_30" data-name="Group 30" transform="translate(-1002.166 -1145.54)">
    <path id="Path_74" data-name="Path 74" d="M1016.833,1160.706h16.333v6.166l4.907,8.793,6.139,11-5.379,1.71h-34l3.5-7,7.228-13.417Z" fill="#d1d3d4"/>
    <path id="Path_75" data-name="Path 75" d="M1045.166,1188.372l-12-21.5V1147.54h-17v19.335l-12,21.5Z" fill="none" stroke="#231f20" stroke-linecap="round" stroke-linejoin="round" stroke-width="4"/>
    <line id="Line_37" data-name="Line 37" x2="25.667" transform="translate(1011.831 1147.54)" fill="#ffffff" stroke="#231f20" stroke-linecap="round" stroke-linejoin="round" stroke-width="4"/>
    <path id="Path_76" data-name="Path 76" d="M1020.666,1179.7a2.333,2.333,0,1,1-2.334-2.333A2.334,2.334,0,0,1,1020.666,1179.7Z" fill="#ffffff"/>
    <path id="Path_77" data-name="Path 77" d="M1032.073,1175.241a3.7,3.7,0,1,1-3.7-3.7A3.7,3.7,0,0,1,1032.073,1175.241Z" fill="#ffffff"/>
  </g>
</svg>